<?xml version="1.0" encoding="utf-8"?>
<!-- Generator: Adobe Illustrator 16.0.3, SVG Export Plug-In . SVG Version: 6.00 Build 0)  -->
<!DOCTYPE svg PUBLIC "-//W3C//DTD SVG 1.1//EN" "http://www.w3.org/Graphics/SVG/1.1/DTD/svg11.dtd">
<svg version="1.1" id="Layer_1" xmlns="http://www.w3.org/2000/svg" xmlns:xlink="http://www.w3.org/1999/xlink" x="0px" y="0px"
	 width="120px" height="120px" viewBox="0 0 120 120" enable-background="new 0 0 120 120" xml:space="preserve">
<g>
	<path fill="#E77D11" d="M110,60c0,18.13-9.65,34-24.1,42.77c-6.12,3.711-13.091,6.15-20.561,6.94C63.59,109.9,61.8,110,60,110
		c-14.87,0-28.22-6.49-37.37-16.8c-6.3-7.08-10.61-15.95-12.08-25.76C10.19,65.01,10,62.53,10,60c0-8.15,1.96-15.83,5.42-22.63
		c1.83,4.89,6.54,8.38,12.07,8.38c7.13,0,12.91-5.78,12.91-12.91c0-6.34-4.57-11.6-10.59-12.69C38.2,13.78,48.66,10,60,10
		c12.69,0,24.27,4.73,33.09,12.53c10.03,8.86,16.48,21.68,16.88,36.02C109.99,59.03,110,59.51,110,60z"/>
	<path fill="#C1440E" d="M40.4,32.84c0,7.13-5.78,12.91-12.91,12.91c-5.53,0-10.24-3.49-12.07-8.38
		c3.44-6.77,8.38-12.66,14.39-17.22C35.83,21.24,40.4,26.5,40.4,32.84z"/>
	<path fill="#C1440E" d="M109.97,58.55c-2.3,0.94-4.81,1.45-7.45,1.45c-11.01,0-19.93-8.92-19.93-19.92c0-7.6,4.25-14.2,10.5-17.55
		C103.12,31.39,109.57,44.21,109.97,58.55z"/>
</g>
<path fill="#C1440E" d="M37,77.93c0,8.141-6.35,14.79-14.37,15.271c-6.3-7.08-10.61-15.95-12.08-25.76
	c2.79-2.971,6.76-4.82,11.15-4.82C30.15,62.62,37,69.47,37,77.93z"/>
<circle fill="#C1440E" cx="72.679" cy="69.033" r="13.565"/>
<path fill="#C1440E" d="M85.9,102.77c-6.12,3.711-13.091,6.15-20.561,6.94c0.11-6.27,5.23-11.32,11.521-11.32
	C80.53,98.39,83.79,100.1,85.9,102.77z"/>
</svg>
